<?xml version="1.0" encoding="us-ascii" standalone="no"?><svg xmlns="http://www.w3.org/2000/svg" xmlns:xlink="http://www.w3.org/1999/xlink" contentStyleType="text/css" height="117px" preserveAspectRatio="none" style="width:330px;height:117px;background:#FFFFFF;" version="1.1" viewBox="0 0 330 117" width="330px" zoomAndPan="magnify"><defs/><g><!--class Matriz--><g id="elem_Matriz"><rect codeLine="1" fill="#F1F1F1" height="96.8906" id="Matriz" rx="2.5" ry="2.5" style="stroke:#181818;stroke-width:0.5;" width="309" x="7" y="7"/><ellipse cx="134.75" cy="23" fill="#ADD1B2" rx="11" ry="11" style="stroke:#181818;stroke-width:1.0;"/><path d="M137.0938,18.6719 C136.1563,18.2344 135.5625,18.0938 134.6875,18.0938 C132.0625,18.0938 130.0625,20.1719 130.0625,22.8906 L130.0625,24.0156 C130.0625,26.5938 132.1719,28.4844 135.0625,28.4844 C136.2813,28.4844 137.4375,28.1875 138.1875,27.6406 C138.7656,27.2344 139.0938,26.7813 139.0938,26.3906 C139.0938,25.9375 138.7031,25.5469 138.2344,25.5469 C138.0156,25.5469 137.8125,25.625 137.625,25.8125 C137.1719,26.2969 137.1719,26.2969 136.9844,26.3906 C136.5625,26.6563 135.875,26.7813 135.1094,26.7813 C133.0625,26.7813 131.7656,25.6875 131.7656,23.9844 L131.7656,22.8906 C131.7656,21.1094 133.0156,19.7969 134.75,19.7969 C135.3281,19.7969 135.9375,19.9531 136.4063,20.2031 C136.8906,20.4844 137.0625,20.7031 137.1563,21.1094 C137.2188,21.5156 137.25,21.6406 137.3906,21.7656 C137.5313,21.9063 137.7656,22.0156 137.9844,22.0156 C138.25,22.0156 138.5156,21.875 138.6875,21.6563 C138.7969,21.5 138.8281,21.3125 138.8281,20.8906 L138.8281,19.4688 C138.8281,19.0313 138.8125,18.9063 138.7188,18.75 C138.5625,18.4844 138.2813,18.3438 137.9844,18.3438 C137.6875,18.3438 137.4844,18.4375 137.2656,18.75 L137.0938,18.6719 Z " fill="#000000"/><text fill="#000000" font-family="sans-serif" font-size="14" lengthAdjust="spacing" textLength="45" x="155.25" y="27.8467">Matriz</text><line style="stroke:#181818;stroke-width:0.5;" x1="8" x2="315" y1="39" y2="39"/><line style="stroke:#181818;stroke-width:0.5;" x1="8" x2="315" y1="47" y2="47"/><ellipse cx="18" cy="60.6484" fill="#84BE84" rx="3" ry="3" style="stroke:#038048;stroke-width:1.0;"/><text fill="#000000" font-family="sans-serif" font-size="14" lengthAdjust="spacing" textLength="283" x="27" y="63.9951">__init__(elementos: List[List[int]]) : void</text><ellipse cx="18" cy="76.9453" fill="#84BE84" rx="3" ry="3" style="stroke:#038048;stroke-width:1.0;"/><text fill="#000000" font-family="sans-serif" font-size="14" lengthAdjust="spacing" textLength="115" x="27" y="80.292">imprimir() : void</text><ellipse cx="18" cy="93.2422" fill="#84BE84" rx="3" ry="3" style="stroke:#038048;stroke-width:1.0;"/><text fill="#000000" font-family="sans-serif" font-size="14" lengthAdjust="spacing" textLength="154" x="27" y="96.5889">transpuesta() : Matriz</text></g><!--SRC=[Iyv9B2vMy4qiASgiKgZcKb3GZe_FpCiiYO_NICr9pKtDAyaljbBmoImkYGOJcNabiR6Q2bOAPVcPAI3bcRa5HPcvcKKQo88bHObvnGMbgSKbYM1nYFbSjG00]--></g></svg>