<?xml version="1.0" encoding="us-ascii" standalone="no"?><svg xmlns="http://www.w3.org/2000/svg" xmlns:xlink="http://www.w3.org/1999/xlink" contentStyleType="text/css" height="565px" preserveAspectRatio="none" style="width:685px;height:565px;background:#FFFFFF;" version="1.1" viewBox="0 0 685 565" width="685px" zoomAndPan="magnify"><defs/><g><!--class Matriz--><g id="elem_Matriz"><rect codeLine="1" fill="#F1F1F1" height="80.5938" id="Matriz" rx="2.5" ry="2.5" style="stroke:#181818;stroke-width:0.5;" width="309" x="179" y="337"/><ellipse cx="306.75" cy="353" fill="#ADD1B2" rx="11" ry="11" style="stroke:#181818;stroke-width:1.0;"/><path d="M309.0938,348.6719 C308.1563,348.2344 307.5625,348.0938 306.6875,348.0938 C304.0625,348.0938 302.0625,350.1719 302.0625,352.8906 L302.0625,354.0156 C302.0625,356.5938 304.1719,358.4844 307.0625,358.4844 C308.2813,358.4844 309.4375,358.1875 310.1875,357.6406 C310.7656,357.2344 311.0938,356.7813 311.0938,356.3906 C311.0938,355.9375 310.7031,355.5469 310.2344,355.5469 C310.0156,355.5469 309.8125,355.625 309.625,355.8125 C309.1719,356.2969 309.1719,356.2969 308.9844,356.3906 C308.5625,356.6563 307.875,356.7813 307.1094,356.7813 C305.0625,356.7813 303.7656,355.6875 303.7656,353.9844 L303.7656,352.8906 C303.7656,351.1094 305.0156,349.7969 306.75,349.7969 C307.3281,349.7969 307.9375,349.9531 308.4063,350.2031 C308.8906,350.4844 309.0625,350.7031 309.1563,351.1094 C309.2188,351.5156 309.25,351.6406 309.3906,351.7656 C309.5313,351.9063 309.7656,352.0156 309.9844,352.0156 C310.25,352.0156 310.5156,351.875 310.6875,351.6563 C310.7969,351.5 310.8281,351.3125 310.8281,350.8906 L310.8281,349.4688 C310.8281,349.0313 310.8125,348.9063 310.7188,348.75 C310.5625,348.4844 310.2813,348.3438 309.9844,348.3438 C309.6875,348.3438 309.4844,348.4375 309.2656,348.75 L309.0938,348.6719 Z " fill="#000000"/><text fill="#000000" font-family="sans-serif" font-size="14" lengthAdjust="spacing" textLength="45" x="327.25" y="357.8467">Matriz</text><line style="stroke:#181818;stroke-width:0.5;" x1="180" x2="487" y1="369" y2="369"/><line style="stroke:#181818;stroke-width:0.5;" x1="180" x2="487" y1="377" y2="377"/><ellipse cx="190" cy="390.6484" fill="#84BE84" rx="3" ry="3" style="stroke:#038048;stroke-width:1.0;"/><text fill="#000000" font-family="sans-serif" font-size="14" lengthAdjust="spacing" textLength="283" x="199" y="393.9951">__init__(elementos: List[List[int]]) : void</text><ellipse cx="190" cy="406.9453" fill="#84BE84" rx="3" ry="3" style="stroke:#038048;stroke-width:1.0;"/><text fill="#000000" font-family="sans-serif" font-size="14" lengthAdjust="spacing" textLength="115" x="199" y="410.292">imprimir() : void</text></g><!--class Transpuesta--><g id="elem_Transpuesta"><rect codeLine="6" fill="#F1F1F1" height="80.5938" id="Transpuesta" rx="2.5" ry="2.5" style="stroke:#181818;stroke-width:0.5;" width="309" x="7" y="478"/><ellipse cx="113.25" cy="494" fill="#ADD1B2" rx="11" ry="11" style="stroke:#181818;stroke-width:1.0;"/><path d="M115.5938,489.6719 C114.6563,489.2344 114.0625,489.0938 113.1875,489.0938 C110.5625,489.0938 108.5625,491.1719 108.5625,493.8906 L108.5625,495.0156 C108.5625,497.5938 110.6719,499.4844 113.5625,499.4844 C114.7813,499.4844 115.9375,499.1875 116.6875,498.6406 C117.2656,498.2344 117.5938,497.7813 117.5938,497.3906 C117.5938,496.9375 117.2031,496.5469 116.7344,496.5469 C116.5156,496.5469 116.3125,496.625 116.125,496.8125 C115.6719,497.2969 115.6719,497.2969 115.4844,497.3906 C115.0625,497.6563 114.375,497.7813 113.6094,497.7813 C111.5625,497.7813 110.2656,496.6875 110.2656,494.9844 L110.2656,493.8906 C110.2656,492.1094 111.5156,490.7969 113.25,490.7969 C113.8281,490.7969 114.4375,490.9531 114.9063,491.2031 C115.3906,491.4844 115.5625,491.7031 115.6563,492.1094 C115.7188,492.5156 115.75,492.6406 115.8906,492.7656 C116.0313,492.9063 116.2656,493.0156 116.4844,493.0156 C116.75,493.0156 117.0156,492.875 117.1875,492.6563 C117.2969,492.5 117.3281,492.3125 117.3281,491.8906 L117.3281,490.4688 C117.3281,490.0313 117.3125,489.9063 117.2188,489.75 C117.0625,489.4844 116.7813,489.3438 116.4844,489.3438 C116.1875,489.3438 115.9844,489.4375 115.7656,489.75 L115.5938,489.6719 Z " fill="#000000"/><text fill="#000000" font-family="sans-serif" font-size="14" lengthAdjust="spacing" textLength="88" x="133.75" y="498.8467">Transpuesta</text><line style="stroke:#181818;stroke-width:0.5;" x1="8" x2="315" y1="510" y2="510"/><line style="stroke:#181818;stroke-width:0.5;" x1="8" x2="315" y1="518" y2="518"/><ellipse cx="18" cy="531.6484" fill="#84BE84" rx="3" ry="3" style="stroke:#038048;stroke-width:1.0;"/><text fill="#000000" font-family="sans-serif" font-size="14" lengthAdjust="spacing" textLength="283" x="27" y="534.9951">__init__(elementos: List[List[int]]) : void</text><ellipse cx="18" cy="547.9453" fill="#84BE84" rx="3" ry="3" style="stroke:#038048;stroke-width:1.0;"/><text fill="#000000" font-family="sans-serif" font-size="14" lengthAdjust="spacing" textLength="148" x="27" y="551.292">transponer() : Matriz</text></g><!--class Imprimir--><g id="elem_Imprimir"><rect codeLine="11" fill="#F1F1F1" height="80.5938" id="Imprimir" rx="2.5" ry="2.5" style="stroke:#181818;stroke-width:0.5;" width="309" x="369" y="478"/><ellipse cx="488.25" cy="494" fill="#ADD1B2" rx="11" ry="11" style="stroke:#181818;stroke-width:1.0;"/><path d="M490.5938,489.6719 C489.6563,489.2344 489.0625,489.0938 488.1875,489.0938 C485.5625,489.0938 483.5625,491.1719 483.5625,493.8906 L483.5625,495.0156 C483.5625,497.5938 485.6719,499.4844 488.5625,499.4844 C489.7813,499.4844 490.9375,499.1875 491.6875,498.6406 C492.2656,498.2344 492.5938,497.7813 492.5938,497.3906 C492.5938,496.9375 492.2031,496.5469 491.7344,496.5469 C491.5156,496.5469 491.3125,496.625 491.125,496.8125 C490.6719,497.2969 490.6719,497.2969 490.4844,497.3906 C490.0625,497.6563 489.375,497.7813 488.6094,497.7813 C486.5625,497.7813 485.2656,496.6875 485.2656,494.9844 L485.2656,493.8906 C485.2656,492.1094 486.5156,490.7969 488.25,490.7969 C488.8281,490.7969 489.4375,490.9531 489.9063,491.2031 C490.3906,491.4844 490.5625,491.7031 490.6563,492.1094 C490.7188,492.5156 490.75,492.6406 490.8906,492.7656 C491.0313,492.9063 491.2656,493.0156 491.4844,493.0156 C491.75,493.0156 492.0156,492.875 492.1875,492.6563 C492.2969,492.5 492.3281,492.3125 492.3281,491.8906 L492.3281,490.4688 C492.3281,490.0313 492.3125,489.9063 492.2188,489.75 C492.0625,489.4844 491.7813,489.3438 491.4844,489.3438 C491.1875,489.3438 490.9844,489.4375 490.7656,489.75 L490.5938,489.6719 Z " fill="#000000"/><text fill="#000000" font-family="sans-serif" font-size="14" lengthAdjust="spacing" textLength="62" x="508.75" y="498.8467">Imprimir</text><line style="stroke:#181818;stroke-width:0.5;" x1="370" x2="677" y1="510" y2="510"/><line style="stroke:#181818;stroke-width:0.5;" x1="370" x2="677" y1="518" y2="518"/><ellipse cx="380" cy="531.6484" fill="#84BE84" rx="3" ry="3" style="stroke:#038048;stroke-width:1.0;"/><text fill="#000000" font-family="sans-serif" font-size="14" lengthAdjust="spacing" textLength="283" x="389" y="534.9951">__init__(elementos: List[List[int]]) : void</text><ellipse cx="380" cy="547.9453" fill="#84BE84" rx="3" ry="3" style="stroke:#038048;stroke-width:1.0;"/><text fill="#000000" font-family="sans-serif" font-size="14" lengthAdjust="spacing" textLength="115" x="389" y="551.292">imprimir() : void</text></g><!--class Lanzador--><g id="elem_Lanzador"><rect codeLine="16" fill="#F1F1F1" height="129.4844" id="Lanzador" rx="2.5" ry="2.5" style="stroke:#181818;stroke-width:0.5;" width="204" x="231.5" y="148"/><ellipse cx="296.75" cy="164" fill="#ADD1B2" rx="11" ry="11" style="stroke:#181818;stroke-width:1.0;"/><path d="M299.0938,159.6719 C298.1563,159.2344 297.5625,159.0938 296.6875,159.0938 C294.0625,159.0938 292.0625,161.1719 292.0625,163.8906 L292.0625,165.0156 C292.0625,167.5938 294.1719,169.4844 297.0625,169.4844 C298.2813,169.4844 299.4375,169.1875 300.1875,168.6406 C300.7656,168.2344 301.0938,167.7813 301.0938,167.3906 C301.0938,166.9375 300.7031,166.5469 300.2344,166.5469 C300.0156,166.5469 299.8125,166.625 299.625,166.8125 C299.1719,167.2969 299.1719,167.2969 298.9844,167.3906 C298.5625,167.6563 297.875,167.7813 297.1094,167.7813 C295.0625,167.7813 293.7656,166.6875 293.7656,164.9844 L293.7656,163.8906 C293.7656,162.1094 295.0156,160.7969 296.75,160.7969 C297.3281,160.7969 297.9375,160.9531 298.4063,161.2031 C298.8906,161.4844 299.0625,161.7031 299.1563,162.1094 C299.2188,162.5156 299.25,162.6406 299.3906,162.7656 C299.5313,162.9063 299.7656,163.0156 299.9844,163.0156 C300.25,163.0156 300.5156,162.875 300.6875,162.6563 C300.7969,162.5 300.8281,162.3125 300.8281,161.8906 L300.8281,160.4688 C300.8281,160.0313 300.8125,159.9063 300.7188,159.75 C300.5625,159.4844 300.2813,159.3438 299.9844,159.3438 C299.6875,159.3438 299.4844,159.4375 299.2656,159.75 L299.0938,159.6719 Z " fill="#000000"/><text fill="#000000" font-family="sans-serif" font-size="14" lengthAdjust="spacing" textLength="65" x="317.25" y="168.8467">Lanzador</text><line style="stroke:#181818;stroke-width:0.5;" x1="232.5" x2="434.5" y1="180" y2="180"/><rect fill="none" height="6" style="stroke:#C82930;stroke-width:1.0;" width="6" x="239.5" y="190.6484"/><text fill="#000000" font-family="sans-serif" font-size="14" lengthAdjust="spacing" textLength="178" x="251.5" y="196.9951">elementos: List[List[int]]</text><rect fill="none" height="6" style="stroke:#C82930;stroke-width:1.0;" width="6" x="239.5" y="206.9453"/><text fill="#000000" font-family="sans-serif" font-size="14" lengthAdjust="spacing" textLength="127" x="251.5" y="213.292">cantidad_filas: int</text><rect fill="none" height="6" style="stroke:#C82930;stroke-width:1.0;" width="6" x="239.5" y="223.2422"/><text fill="#000000" font-family="sans-serif" font-size="14" lengthAdjust="spacing" textLength="165" x="251.5" y="229.5889">cantidad_columnas: int</text><line style="stroke:#181818;stroke-width:0.5;" x1="232.5" x2="434.5" y1="236.8906" y2="236.8906"/><ellipse cx="242.5" cy="250.5391" fill="#84BE84" rx="3" ry="3" style="stroke:#038048;stroke-width:1.0;"/><text fill="#000000" font-family="sans-serif" font-size="14" lengthAdjust="spacing" textLength="144" x="251.5" y="253.8857">crear_matriz() : void</text><ellipse cx="242.5" cy="266.8359" fill="#84BE84" rx="3" ry="3" style="stroke:#038048;stroke-width:1.0;"/><text fill="#000000" font-family="sans-serif" font-size="14" lengthAdjust="spacing" textLength="96" x="251.5" y="270.1826">lanzar() : void</text></g><!--class Main--><g id="elem_Main"><rect codeLine="24" fill="#F1F1F1" height="80.5938" id="Main" rx="2.5" ry="2.5" style="stroke:#181818;stroke-width:0.5;" width="161" x="253" y="7"/><ellipse cx="312.75" cy="23" fill="#ADD1B2" rx="11" ry="11" style="stroke:#181818;stroke-width:1.0;"/><path d="M315.0938,18.6719 C314.1563,18.2344 313.5625,18.0938 312.6875,18.0938 C310.0625,18.0938 308.0625,20.1719 308.0625,22.8906 L308.0625,24.0156 C308.0625,26.5938 310.1719,28.4844 313.0625,28.4844 C314.2813,28.4844 315.4375,28.1875 316.1875,27.6406 C316.7656,27.2344 317.0938,26.7813 317.0938,26.3906 C317.0938,25.9375 316.7031,25.5469 316.2344,25.5469 C316.0156,25.5469 315.8125,25.625 315.625,25.8125 C315.1719,26.2969 315.1719,26.2969 314.9844,26.3906 C314.5625,26.6563 313.875,26.7813 313.1094,26.7813 C311.0625,26.7813 309.7656,25.6875 309.7656,23.9844 L309.7656,22.8906 C309.7656,21.1094 311.0156,19.7969 312.75,19.7969 C313.3281,19.7969 313.9375,19.9531 314.4063,20.2031 C314.8906,20.4844 315.0625,20.7031 315.1563,21.1094 C315.2188,21.5156 315.25,21.6406 315.3906,21.7656 C315.5313,21.9063 315.7656,22.0156 315.9844,22.0156 C316.25,22.0156 316.5156,21.875 316.6875,21.6563 C316.7969,21.5 316.8281,21.3125 316.8281,20.8906 L316.8281,19.4688 C316.8281,19.0313 316.8125,18.9063 316.7188,18.75 C316.5625,18.4844 316.2813,18.3438 315.9844,18.3438 C315.6875,18.3438 315.4844,18.4375 315.2656,18.75 L315.0938,18.6719 Z " fill="#000000"/><text fill="#000000" font-family="sans-serif" font-size="14" lengthAdjust="spacing" textLength="33" x="333.25" y="27.8467">Main</text><line style="stroke:#181818;stroke-width:0.5;" x1="254" x2="413" y1="39" y2="39"/><rect fill="none" height="6" style="stroke:#C82930;stroke-width:1.0;" width="6" x="261" y="49.6484"/><text fill="#000000" font-family="sans-serif" font-size="14" lengthAdjust="spacing" textLength="135" x="273" y="55.9951">lanzador: Lanzador</text><line style="stroke:#181818;stroke-width:0.5;" x1="254" x2="413" y1="63.2969" y2="63.2969"/><ellipse cx="264" cy="76.9453" fill="#84BE84" rx="3" ry="3" style="stroke:#038048;stroke-width:1.0;"/><text fill="#000000" font-family="sans-serif" font-size="14" lengthAdjust="spacing" textLength="105" x="273" y="80.292">__init__() : void</text></g><!--reverse link Matriz to Transpuesta--><g id="link_Matriz_Transpuesta"><path codeLine="29" d="M279.5453,422.1033 C256.4153,440.7953 233.591,459.2405 210.498,477.9028 " fill="none" id="Matriz-backto-Transpuesta" style="stroke:#181818;stroke-width:1.0;"/><polygon fill="#181818" points="284.212,418.332,274.6979,420.8778,280.3231,421.4747,279.7262,427.1,284.212,418.332" style="stroke:#181818;stroke-width:1.0;"/></g><!--reverse link Matriz to Imprimir--><g id="link_Matriz_Imprimir"><path codeLine="30" d="M392.5345,421.6887 C418.0915,440.3857 443.67,459.0982 469.236,477.8015 " fill="none" id="Matriz-backto-Imprimir" style="stroke:#181818;stroke-width:1.0;"/><polygon fill="#181818" points="387.692,418.146,392.5939,426.6883,391.7274,421.0982,397.3175,420.2317,387.692,418.146" style="stroke:#181818;stroke-width:1.0;"/></g><!--link Lanzador to Matriz--><g id="link_Lanzador_Matriz"><path codeLine="31" d="M333.5,277.454 C333.5,297.433 333.5,312.888 333.5,330.704 " fill="none" id="Lanzador-to-Matriz" style="stroke:#181818;stroke-width:1.0;"/><polygon fill="#181818" points="333.5,336.704,337.5,327.704,333.5,331.704,329.5,327.704,333.5,336.704" style="stroke:#181818;stroke-width:1.0;"/></g><!--link Lanzador to Transpuesta--><g id="link_Lanzador_Transpuesta"><path codeLine="32" d="M231.183,263.566 C203.494,282.496 176.938,306.909 161.5,337 C138.899,381.053 143.062,433.5921 150.43,471.8727 " fill="none" id="Lanzador-to-Transpuesta" style="stroke:#181818;stroke-width:1.0;"/><polygon fill="#181818" points="151.564,477.7646,153.7909,468.1708,150.619,472.8547,145.9351,469.6828,151.564,477.7646" style="stroke:#181818;stroke-width:1.0;"/></g><!--link Lanzador to Imprimir--><g id="link_Lanzador_Imprimir"><path codeLine="33" d="M435.8,265.8 C462.783,284.58 488.953,308.35 505.5,337 C530.464,380.224 531.864,433.1338 528.968,471.7232 " fill="none" id="Lanzador-to-Imprimir" style="stroke:#181818;stroke-width:1.0;"/><polygon fill="#181818" points="528.519,477.7064,533.1813,469.031,528.8932,472.7204,525.2037,468.4323,528.519,477.7064" style="stroke:#181818;stroke-width:1.0;"/></g><!--link Main to Lanzador--><g id="link_Main_Lanzador"><path codeLine="34" d="M333.5,88.374 C333.5,106.282 333.5,121.854 333.5,141.906 " fill="none" id="Main-to-Lanzador" style="stroke:#181818;stroke-width:1.0;"/><polygon fill="#181818" points="333.5,147.906,337.5,138.906,333.5,142.906,329.5,138.906,333.5,147.906" style="stroke:#181818;stroke-width:1.0;"/></g><!--SRC=[hP4z2iCm38NtdC9ZIl05GkbUIBPkfHZXk22mvM0x7L9wzoREdmFjKhfuUCzw-YH93Twp6eB3dZqpnWeXa308aIkjZA9WVSagzE4Q7wHmknrOoHuMc_4xcjQXGPUluYlBP4ozE23VTie7-2awn7fBQWgV8BVuyzpvtzWLK0-DdNBvzxZHbK016sZ47OVQaWt6JfPMTuOsfv1EWHCcZfAdG7hi-Wcd1gG9HSzWvOgu6pmjdGzwv3ozGYelsylMSJa_BJlUQMd0pbWZ8kAeBFOR]--></g></svg>