<?xml version="1.0" encoding="us-ascii" standalone="no"?><svg xmlns="http://www.w3.org/2000/svg" xmlns:xlink="http://www.w3.org/1999/xlink" contentStyleType="text/css" height="326px" preserveAspectRatio="none" style="width:887px;height:326px;background:#FFFFFF;" version="1.1" viewBox="0 0 887 326" width="887px" zoomAndPan="magnify"><defs/><g><!--class DataBaseManager--><g id="elem_DataBaseManager"><rect codeLine="1" fill="#F1F1F1" height="64.2969" id="DataBaseManager" rx="2.5" ry="2.5" style="stroke:#181818;stroke-width:0.5;" width="247" x="211" y="7"/><ellipse cx="265.75" cy="23" fill="#ADD1B2" rx="11" ry="11" style="stroke:#181818;stroke-width:1.0;"/><path d="M268.0938,18.6719 C267.1563,18.2344 266.5625,18.0938 265.6875,18.0938 C263.0625,18.0938 261.0625,20.1719 261.0625,22.8906 L261.0625,24.0156 C261.0625,26.5938 263.1719,28.4844 266.0625,28.4844 C267.2813,28.4844 268.4375,28.1875 269.1875,27.6406 C269.7656,27.2344 270.0938,26.7813 270.0938,26.3906 C270.0938,25.9375 269.7031,25.5469 269.2344,25.5469 C269.0156,25.5469 268.8125,25.625 268.625,25.8125 C268.1719,26.2969 268.1719,26.2969 267.9844,26.3906 C267.5625,26.6563 266.875,26.7813 266.1094,26.7813 C264.0625,26.7813 262.7656,25.6875 262.7656,23.9844 L262.7656,22.8906 C262.7656,21.1094 264.0156,19.7969 265.75,19.7969 C266.3281,19.7969 266.9375,19.9531 267.4063,20.2031 C267.8906,20.4844 268.0625,20.7031 268.1563,21.1094 C268.2188,21.5156 268.25,21.6406 268.3906,21.7656 C268.5313,21.9063 268.7656,22.0156 268.9844,22.0156 C269.25,22.0156 269.5156,21.875 269.6875,21.6563 C269.7969,21.5 269.8281,21.3125 269.8281,20.8906 L269.8281,19.4688 C269.8281,19.0313 269.8125,18.9063 269.7188,18.75 C269.5625,18.4844 269.2813,18.3438 268.9844,18.3438 C268.6875,18.3438 268.4844,18.4375 268.2656,18.75 L268.0938,18.6719 Z " fill="#000000"/><text fill="#000000" font-family="sans-serif" font-size="14" lengthAdjust="spacing" textLength="129" x="286.25" y="27.8467">DataBaseManager</text><line style="stroke:#181818;stroke-width:0.5;" x1="212" x2="457" y1="39" y2="39"/><line style="stroke:#181818;stroke-width:0.5;" x1="212" x2="457" y1="47" y2="47"/><ellipse cx="222" cy="60.6484" fill="#84BE84" rx="3" ry="3" style="stroke:#038048;stroke-width:1.0;"/><text fill="#000000" font-family="sans-serif" font-size="14" lengthAdjust="spacing" textLength="221" x="231" y="63.9951">__init__(connection_string: str)</text></g><!--class Authenticator--><g id="elem_Authenticator"><rect codeLine="5" fill="#F1F1F1" height="64.2969" id="Authenticator" rx="2.5" ry="2.5" style="stroke:#181818;stroke-width:0.5;" width="329" x="61" y="131"/><ellipse cx="170.75" cy="147" fill="#ADD1B2" rx="11" ry="11" style="stroke:#181818;stroke-width:1.0;"/><path d="M173.0938,142.6719 C172.1563,142.2344 171.5625,142.0938 170.6875,142.0938 C168.0625,142.0938 166.0625,144.1719 166.0625,146.8906 L166.0625,148.0156 C166.0625,150.5938 168.1719,152.4844 171.0625,152.4844 C172.2813,152.4844 173.4375,152.1875 174.1875,151.6406 C174.7656,151.2344 175.0938,150.7813 175.0938,150.3906 C175.0938,149.9375 174.7031,149.5469 174.2344,149.5469 C174.0156,149.5469 173.8125,149.625 173.625,149.8125 C173.1719,150.2969 173.1719,150.2969 172.9844,150.3906 C172.5625,150.6563 171.875,150.7813 171.1094,150.7813 C169.0625,150.7813 167.7656,149.6875 167.7656,147.9844 L167.7656,146.8906 C167.7656,145.1094 169.0156,143.7969 170.75,143.7969 C171.3281,143.7969 171.9375,143.9531 172.4063,144.2031 C172.8906,144.4844 173.0625,144.7031 173.1563,145.1094 C173.2188,145.5156 173.25,145.6406 173.3906,145.7656 C173.5313,145.9063 173.7656,146.0156 173.9844,146.0156 C174.25,146.0156 174.5156,145.875 174.6875,145.6563 C174.7969,145.5 174.8281,145.3125 174.8281,144.8906 L174.8281,143.4688 C174.8281,143.0313 174.8125,142.9063 174.7188,142.75 C174.5625,142.4844 174.2813,142.3438 173.9844,142.3438 C173.6875,142.3438 173.4844,142.4375 173.2656,142.75 L173.0938,142.6719 Z " fill="#000000"/><text fill="#000000" font-family="sans-serif" font-size="14" lengthAdjust="spacing" textLength="101" x="191.25" y="151.8467">Authenticator</text><line style="stroke:#181818;stroke-width:0.5;" x1="62" x2="389" y1="163" y2="163"/><line style="stroke:#181818;stroke-width:0.5;" x1="62" x2="389" y1="171" y2="171"/><ellipse cx="72" cy="184.6484" fill="#84BE84" rx="3" ry="3" style="stroke:#038048;stroke-width:1.0;"/><text fill="#000000" font-family="sans-serif" font-size="14" lengthAdjust="spacing" textLength="303" x="81" y="187.9951">__init__(user_database: DataBaseManager)</text></g><!--class PaymentProcessor--><g id="elem_PaymentProcessor"><rect codeLine="9" fill="#F1F1F1" height="64.2969" id="PaymentProcessor" rx="2.5" ry="2.5" style="stroke:#181818;stroke-width:0.5;" width="172" x="496.5" y="131"/><ellipse cx="514.2" cy="147" fill="#ADD1B2" rx="11" ry="11" style="stroke:#181818;stroke-width:1.0;"/><path d="M516.5438,142.6719 C515.6063,142.2344 515.0125,142.0938 514.1375,142.0938 C511.5125,142.0938 509.5125,144.1719 509.5125,146.8906 L509.5125,148.0156 C509.5125,150.5938 511.6219,152.4844 514.5125,152.4844 C515.7313,152.4844 516.8875,152.1875 517.6375,151.6406 C518.2156,151.2344 518.5438,150.7813 518.5438,150.3906 C518.5438,149.9375 518.1531,149.5469 517.6844,149.5469 C517.4656,149.5469 517.2625,149.625 517.075,149.8125 C516.6219,150.2969 516.6219,150.2969 516.4344,150.3906 C516.0125,150.6563 515.325,150.7813 514.5594,150.7813 C512.5125,150.7813 511.2156,149.6875 511.2156,147.9844 L511.2156,146.8906 C511.2156,145.1094 512.4656,143.7969 514.2,143.7969 C514.7781,143.7969 515.3875,143.9531 515.8563,144.2031 C516.3406,144.4844 516.5125,144.7031 516.6063,145.1094 C516.6688,145.5156 516.7,145.6406 516.8406,145.7656 C516.9813,145.9063 517.2156,146.0156 517.4344,146.0156 C517.7,146.0156 517.9656,145.875 518.1375,145.6563 C518.2469,145.5 518.2781,145.3125 518.2781,144.8906 L518.2781,143.4688 C518.2781,143.0313 518.2625,142.9063 518.1688,142.75 C518.0125,142.4844 517.7313,142.3438 517.4344,142.3438 C517.1375,142.3438 516.9344,142.4375 516.7156,142.75 L516.5438,142.6719 Z " fill="#000000"/><text fill="#000000" font-family="sans-serif" font-size="14" lengthAdjust="spacing" textLength="134" x="528.8" y="151.8467">PaymentProcessor</text><line style="stroke:#181818;stroke-width:0.5;" x1="497.5" x2="667.5" y1="163" y2="163"/><line style="stroke:#181818;stroke-width:0.5;" x1="497.5" x2="667.5" y1="171" y2="171"/><ellipse cx="507.5" cy="184.6484" fill="#84BE84" rx="3" ry="3" style="stroke:#038048;stroke-width:1.0;"/><text fill="#000000" font-family="sans-serif" font-size="14" lengthAdjust="spacing" textLength="146" x="516.5" y="187.9951">__init__(api_key: str)</text></g><!--class OrderManager--><g id="elem_OrderManager"><rect codeLine="13" fill="#F1F1F1" height="64.2969" id="OrderManager" rx="2.5" ry="2.5" style="stroke:#181818;stroke-width:0.5;" width="873" x="7" y="255"/><ellipse cx="388.25" cy="271" fill="#ADD1B2" rx="11" ry="11" style="stroke:#181818;stroke-width:1.0;"/><path d="M390.5938,266.6719 C389.6563,266.2344 389.0625,266.0938 388.1875,266.0938 C385.5625,266.0938 383.5625,268.1719 383.5625,270.8906 L383.5625,272.0156 C383.5625,274.5938 385.6719,276.4844 388.5625,276.4844 C389.7813,276.4844 390.9375,276.1875 391.6875,275.6406 C392.2656,275.2344 392.5938,274.7813 392.5938,274.3906 C392.5938,273.9375 392.2031,273.5469 391.7344,273.5469 C391.5156,273.5469 391.3125,273.625 391.125,273.8125 C390.6719,274.2969 390.6719,274.2969 390.4844,274.3906 C390.0625,274.6563 389.375,274.7813 388.6094,274.7813 C386.5625,274.7813 385.2656,273.6875 385.2656,271.9844 L385.2656,270.8906 C385.2656,269.1094 386.5156,267.7969 388.25,267.7969 C388.8281,267.7969 389.4375,267.9531 389.9063,268.2031 C390.3906,268.4844 390.5625,268.7031 390.6563,269.1094 C390.7188,269.5156 390.75,269.6406 390.8906,269.7656 C391.0313,269.9063 391.2656,270.0156 391.4844,270.0156 C391.75,270.0156 392.0156,269.875 392.1875,269.6563 C392.2969,269.5 392.3281,269.3125 392.3281,268.8906 L392.3281,267.4688 C392.3281,267.0313 392.3125,266.9063 392.2188,266.75 C392.0625,266.4844 391.7813,266.3438 391.4844,266.3438 C391.1875,266.3438 390.9844,266.4375 390.7656,266.75 L390.5938,266.6719 Z " fill="#000000"/><text fill="#000000" font-family="sans-serif" font-size="14" lengthAdjust="spacing" textLength="102" x="408.75" y="275.8467">OrderManager</text><line style="stroke:#181818;stroke-width:0.5;" x1="8" x2="879" y1="287" y2="287"/><line style="stroke:#181818;stroke-width:0.5;" x1="8" x2="879" y1="295" y2="295"/><ellipse cx="18" cy="308.6484" fill="#84BE84" rx="3" ry="3" style="stroke:#038048;stroke-width:1.0;"/><text fill="#000000" font-family="sans-serif" font-size="14" lengthAdjust="spacing" textLength="847" x="27" y="311.9951">__init__(database_manager: DataBaseManager, authenticator: Authenticator, payment_processor: PaymentProcessor)</text></g><!--link DataBaseManager to Authenticator--><g id="link_DataBaseManager_Authenticator"><path codeLine="17" d="M306.713,71.101 C290.313,89.457 273.6245,108.1357 257.2345,126.4807 " fill="none" id="DataBaseManager-to-Authenticator" style="stroke:#181818;stroke-width:1.0;"/><polygon fill="#181818" points="253.237,130.955,262.2162,126.9085,256.5683,127.2264,256.2504,121.5785,253.237,130.955" style="stroke:#181818;stroke-width:1.0;"/></g><!--link DataBaseManager to OrderManager--><g id="link_DataBaseManager_OrderManager"><path codeLine="18" d="M365.427,71.25 C380.178,87.776 396.881,109.138 407.5,131 C427.053,171.257 435.5128,216.6822 439.6498,248.9844 " fill="none" id="DataBaseManager-to-OrderManager" style="stroke:#181818;stroke-width:1.0;"/><polygon fill="#181818" points="440.412,254.9358,443.2363,245.5006,439.7768,249.9763,435.3011,246.5169,440.412,254.9358" style="stroke:#181818;stroke-width:1.0;"/></g><!--link Authenticator to OrderManager--><g id="link_Authenticator_OrderManager"><path codeLine="19" d="M281.075,195.101 C313.873,213.457 350.0101,233.6799 382.7911,252.0252 " fill="none" id="Authenticator-to-OrderManager" style="stroke:#181818;stroke-width:1.0;"/><polygon fill="#181818" points="388.027,254.9554,382.1267,247.0696,383.6638,252.5136,378.2198,254.0507,388.027,254.9554" style="stroke:#181818;stroke-width:1.0;"/></g><!--link PaymentProcessor to OrderManager--><g id="link_PaymentProcessor_OrderManager"><path codeLine="20" d="M547.065,195.101 C526.152,213.457 504.2814,232.6521 483.3804,250.9974 " fill="none" id="PaymentProcessor-to-OrderManager" style="stroke:#181818;stroke-width:1.0;"/><polygon fill="#181818" points="478.871,254.9554,488.2737,252.0247,482.6288,251.6571,482.9964,246.0122,478.871,254.9554" style="stroke:#181818;stroke-width:1.0;"/></g><!--SRC=[RP113i8W44Ntd8AbnlO2B4mqReszmMIaaqgqqC1qqHZlBcdJX49NB6Rc_SVN7mn1tf3nYe7kQB4ZBxz2oXE0iOO13jfPIvgDin3O6zif6T-Z-0cXv_FBo2-oR3Ioou_7G1xQo7z6ligJ4aY3KnyXZNUQGYWuE1XuqvH7FtnBVbzx3OL-6HVXbSHKN6t_KSbXCO9XLLA5v6oIjrVNvorgToCr5zi6Yt7HJRxn1m00]--></g></svg>